<svg xmlns="http://www.w3.org/2000/svg" xmlns:xlink="http://www.w3.org/1999/xlink" contentStyleType="text/css" data-diagram-type="DESCRIPTION" height="1035px" preserveAspectRatio="none" style="width:1701px;height:1035px;background:#FFFFFF;" version="1.1" viewBox="0 0 1701 1035" width="1701px" zoomAndPan="magnify"><title>Certus Server &#8212; full-remote Profile</title><defs/><g><g class="title" data-source-line="6"><text fill="#000000" font-family="sans-serif" font-size="14" font-weight="bold" lengthAdjust="spacing" textLength="277.3955" x="704.9309" y="22.9951">Certus Server &#8212; full-remote Profile</text></g><!--cluster Client Process--><g class="cluster" data-entity="Client Process" data-source-line="8" data-uid="ent0002" id="cluster_Client Process"><rect fill="none" height="279.5" rx="2.5" ry="2.5" style="stroke:#181818;stroke-width:1;" width="197" x="7" y="44.2969"/><text fill="#000000" font-family="sans-serif" font-size="11" font-weight="bold" lengthAdjust="spacing" textLength="88.1128" x="61.4436" y="56.5073">Client Process</text></g><!--cluster certus-server Process--><g class="cluster" data-entity="certus-server Process" data-source-line="14" data-uid="ent0006" id="cluster_certus-server Process"><rect fill="none" height="848" rx="2.5" ry="2.5" style="stroke:#181818;stroke-width:1;" width="1305" x="252" y="181.2969"/><text fill="#000000" font-family="sans-serif" font-size="11" font-weight="bold" lengthAdjust="spacing" textLength="135.0454" x="836.9773" y="193.5073">certus-server Process</text></g><!--cluster gRPC Service Layer (tonic)--><g class="cluster" data-entity="gRPC Service Layer .tonic." data-source-line="15" data-uid="ent0007" id="cluster_gRPC Service Layer .tonic."><rect fill="none" height="105" rx="2.5" ry="2.5" style="stroke:#181818;stroke-width:1;" width="248" x="560" y="220.2969"/><text fill="#000000" font-family="sans-serif" font-size="11" font-weight="bold" lengthAdjust="spacing" textLength="165.1772" x="601.4114" y="232.5073">gRPC Service Layer (tonic)</text></g><!--cluster disppkg--><g class="cluster" data-entity="disppkg" data-source-line="19" data-uid="ent0009" id="cluster_disppkg"><rect fill="none" height="229.5" rx="2.5" ry="2.5" style="stroke:#181818;stroke-width:1;" width="783" x="750" y="358.2969"/><text fill="#000000" font-family="sans-serif" font-size="11" font-weight="bold" lengthAdjust="spacing" textLength="67.2407" x="1107.8796" y="370.5073">Dispatcher</text></g><!--cluster Core Components--><g class="cluster" data-entity="Core Components" data-source-line="28" data-uid="ent0016" id="cluster_Core Components"><rect fill="none" height="359" rx="2.5" ry="2.5" style="stroke:#181818;stroke-width:1;" width="542" x="683" y="646.2969"/><text fill="#000000" font-family="sans-serif" font-size="11" font-weight="bold" lengthAdjust="spacing" textLength="109.7959" x="899.1021" y="658.5073">Core Components</text></g><!--cluster datadrive--><g class="cluster" data-entity="datadrive" data-source-line="37" data-uid="ent0023" id="cluster_datadrive"><rect fill="none" height="231" rx="2.5" ry="2.5" style="stroke:#181818;stroke-width:1;" width="180" x="1332" y="652.2969"/><text fill="#000000" font-family="sans-serif" font-size="11" font-weight="bold" lengthAdjust="spacing" textLength="62.1919" x="1390.9041" y="664.5073">DataDrive</text></g><!--cluster remote_layer--><g class="cluster" data-entity="remote_layer" data-source-line="42" data-uid="ent0026" id="cluster_remote_layer"><rect fill="none" height="105" rx="2.5" ry="2.5" style="stroke:#181818;stroke-width:1;" width="450" x="276" y="495.2969"/><text fill="#000000" font-family="sans-serif" font-size="11" font-weight="bold" lengthAdjust="spacing" textLength="127.123" x="437.4385" y="507.5073">Remote Cache Layer</text></g><!--entity client--><g class="entity" data-entity="client" data-source-line="9" data-uid="ent0003" id="entity_client"><rect fill="#F1F1F1" height="45.6094" rx="2.5" ry="2.5" style="stroke:#181818;stroke-width:0.5;" width="111.6738" x="49" y="75.2969"/><text fill="#000000" font-family="sans-serif" font-size="11" lengthAdjust="spacing" textLength="58.5503" x="59" y="95.5073">GPU Client</text><text fill="#000000" font-family="sans-serif" font-size="11" lengthAdjust="spacing" textLength="91.6738" x="59" y="108.312">(vLLM / PyTorch)</text></g><!--entity client_gpu--><g class="entity" data-entity="client_gpu" data-source-line="10" data-uid="ent0004" id="entity_client_gpu"><path d="M23,262.7969 C23,252.7969 74.9724,252.7969 74.9724,252.7969 C74.9724,252.7969 126.9448,252.7969 126.9448,262.7969 L126.9448,297.4063 C126.9448,307.4063 74.9724,307.4063 74.9724,307.4063 C74.9724,307.4063 23,307.4063 23,297.4063 L23,262.7969" fill="#F1F1F1" style="stroke:#181818;stroke-width:0.5;"/><path d="M23,262.7969 C23,272.7969 74.9724,272.7969 74.9724,272.7969 C74.9724,272.7969 126.9448,272.7969 126.9448,262.7969" fill="none" style="stroke:#181818;stroke-width:0.5;"/><text fill="#000000" font-family="sans-serif" font-size="11" lengthAdjust="spacing" textLength="71.4409" x="33" y="287.0073">GPU Memory</text><text fill="#000000" font-family="sans-serif" font-size="11" lengthAdjust="spacing" textLength="83.9448" x="33" y="299.812">(client context)</text></g><!--entity rpcs--><g class="entity" data-entity="rpcs" data-source-line="16" data-uid="ent0008" id="entity_rpcs"><rect fill="#F1F1F1" height="58.4141" rx="2.5" ry="2.5" style="stroke:#181818;stroke-width:0.5;" width="214.541" x="576.5" y="251.2969"/><text fill="#000000" font-family="sans-serif" font-size="11" lengthAdjust="spacing" textLength="143.3438" x="586.5" y="271.5073">Populate / Lookup / Check</text><text fill="#000000" font-family="sans-serif" font-size="11" lengthAdjust="spacing" textLength="194.541" x="586.5" y="284.312">Remove / Touch / ClearMemoryTier</text><text fill="#000000" font-family="sans-serif" font-size="11" lengthAdjust="spacing" textLength="62.2026" x="586.5" y="297.1167">FlushToSsd</text></g><!--entity dispatcher--><g class="entity" data-entity="dispatcher" data-source-line="20" data-uid="ent0010" id="entity_dispatcher"><rect fill="#ADD8E6" height="45.6094" rx="2.5" ry="2.5" style="stroke:#181818;stroke-width:0.5;" width="143.4653" x="896.5" y="389.2969"/><text fill="#000000" font-family="sans-serif" font-size="11" lengthAdjust="spacing" textLength="123.4653" x="906.5" y="409.5073">DispatcherComponent</text><text fill="#000000" font-family="sans-serif" font-size="11" lengthAdjust="spacing" textLength="76.3071" x="906.5" y="422.312">&#171;IDispatcher&#187;</text></g><!--entity drives--><g class="entity" data-entity="drives" data-source-line="21" data-uid="ent0011" id="entity_drives"><rect fill="#F5DEB3" height="32.8047" rx="2.5" ry="2.5" style="stroke:#181818;stroke-width:0.5;" width="101.3076" x="1393.5" y="538.7969"/><text fill="#000000" font-family="sans-serif" font-size="11" lengthAdjust="spacing" textLength="81.3076" x="1403.5" y="559.0073">DataDrive 0..N</text></g><!--entity bgwriter--><g class="entity" data-entity="bgwriter" data-source-line="22" data-uid="ent0012" id="entity_bgwriter"><rect fill="#F0E68C" height="32.8047" rx="2.5" ry="2.5" style="stroke:#181818;stroke-width:0.5;" width="160.4971" x="1198" y="395.7969"/><text fill="#000000" font-family="sans-serif" font-size="11" lengthAdjust="spacing" textLength="140.4971" x="1208" y="416.0073">ParallelBackgroundWriter</text></g><!--entity bgevictor--><g class="entity" data-entity="bgevictor" data-source-line="23" data-uid="ent0013" id="entity_bgevictor"><rect fill="#F0E68C" height="32.8047" rx="2.5" ry="2.5" style="stroke:#181818;stroke-width:0.5;" width="123.9951" x="1393" y="395.7969"/><text fill="#000000" font-family="sans-serif" font-size="11" lengthAdjust="spacing" textLength="103.9951" x="1403" y="416.0073">BackgroundEvictor</text></g><!--entity pipeline--><g class="entity" data-entity="pipeline" data-source-line="24" data-uid="ent0014" id="entity_pipeline"><rect fill="#F0E68C" height="32.8047" rx="2.5" ry="2.5" style="stroke:#181818;stroke-width:0.5;" width="87.9443" x="1075" y="395.7969"/><text fill="#000000" font-family="sans-serif" font-size="11" lengthAdjust="spacing" textLength="67.9443" x="1085" y="416.0073">PipelineRing</text></g><!--entity warmstream--><g class="entity" data-entity="warmstream" data-source-line="25" data-uid="ent0015" id="entity_warmstream"><rect fill="#F0E68C" height="32.8047" rx="2.5" ry="2.5" style="stroke:#181818;stroke-width:0.5;" width="95.2651" x="766.5" y="395.7969"/><text fill="#000000" font-family="sans-serif" font-size="11" lengthAdjust="spacing" textLength="75.2651" x="776.5" y="416.0073">warm_stream</text></g><!--entity spdk--><g class="entity" data-entity="spdk" data-source-line="29" data-uid="ent0017" id="entity_spdk"><rect fill="#D3D3D3" height="45.6094" rx="2.5" ry="2.5" style="stroke:#181818;stroke-width:0.5;" width="133.5933" x="1075" y="683.2969"/><text fill="#000000" font-family="sans-serif" font-size="11" lengthAdjust="spacing" textLength="113.5933" x="1085" y="703.5073">SPDKEnvComponent</text><text fill="#000000" font-family="sans-serif" font-size="11" lengthAdjust="spacing" textLength="66.4351" x="1085" y="716.312">&#171;ISPDKEnv&#187;</text></g><!--entity gpu--><g class="entity" data-entity="gpu" data-source-line="30" data-uid="ent0018" id="entity_gpu"><rect fill="#90EE90" height="45.6094" rx="2.5" ry="2.5" style="stroke:#181818;stroke-width:0.5;" width="152.7251" x="699.5" y="815.2969"/><text fill="#000000" font-family="sans-serif" font-size="11" lengthAdjust="spacing" textLength="132.7251" x="709.5" y="835.5073">GpuServicesComponent</text><text fill="#000000" font-family="sans-serif" font-size="11" lengthAdjust="spacing" textLength="85.5669" x="709.5" y="848.312">&#171;IGpuServices&#187;</text></g><!--entity eviction--><g class="entity" data-entity="eviction" data-source-line="31" data-uid="ent0019" id="entity_eviction"><rect fill="#FFFFFF" height="45.6094" rx="2.5" ry="2.5" style="stroke:#181818;stroke-width:0.5;" width="177.1528" x="925.5" y="815.2969"/><text fill="#000000" font-family="sans-serif" font-size="11" lengthAdjust="spacing" textLength="157.1528" x="935.5" y="835.5073">EvictionPolicyLruComponent</text><text fill="#000000" font-family="sans-serif" font-size="11" lengthAdjust="spacing" textLength="92.3721" x="935.5" y="848.312">&#171;IEvictionPolicy&#187;</text></g><!--entity memtier--><g class="entity" data-entity="memtier" data-source-line="32" data-uid="ent0020" id="entity_memtier"><rect fill="#ADD8E6" height="58.4141" rx="2.5" ry="2.5" style="stroke:#181818;stroke-width:0.5;" width="149.6636" x="890" y="677.2969"/><text fill="#000000" font-family="sans-serif" font-size="11" lengthAdjust="spacing" textLength="129.6636" x="900" y="697.5073">MemoryTierComponent</text><text fill="#000000" font-family="sans-serif" font-size="11" lengthAdjust="spacing" textLength="82.5054" x="900" y="710.312">&#171;IMemoryTier&#187;</text><text fill="#000000" font-family="sans-serif" font-size="11" lengthAdjust="spacing" textLength="100.1816" x="900" y="723.1167">mmap pool + LRU</text></g><!--entity dispmap--><g class="entity" data-entity="dispmap" data-source-line="33" data-uid="ent0021" id="entity_dispmap"><rect fill="#ADD8E6" height="58.4141" rx="2.5" ry="2.5" style="stroke:#181818;stroke-width:0.5;" width="155.3892" x="699.5" y="677.2969"/><text fill="#000000" font-family="sans-serif" font-size="11" lengthAdjust="spacing" textLength="135.3892" x="709.5" y="697.5073">DispatchMapComponent</text><text fill="#000000" font-family="sans-serif" font-size="11" lengthAdjust="spacing" textLength="88.231" x="709.5" y="710.312">&#171;IDispatchMap&#187;</text><text fill="#000000" font-family="sans-serif" font-size="11" lengthAdjust="spacing" textLength="117.2563" x="709.5" y="723.1167">key -&gt; location index</text></g><!--entity logger--><g class="entity" data-entity="logger" data-source-line="34" data-uid="ent0022" id="entity_logger"><rect fill="#FFFFFF" height="45.6094" rx="2.5" ry="2.5" style="stroke:#181818;stroke-width:0.5;" width="121.9756" x="953" y="943.2969"/><text fill="#000000" font-family="sans-serif" font-size="11" lengthAdjust="spacing" textLength="101.9756" x="963" y="963.5073">LoggerComponent</text><text fill="#000000" font-family="sans-serif" font-size="11" lengthAdjust="spacing" textLength="54.8174" x="963" y="976.312">&#171;ILogger&#187;</text></g><!--entity blkdev--><g class="entity" data-entity="blkdev" data-source-line="38" data-uid="ent0024" id="entity_blkdev"><rect fill="#F5DEB3" height="58.4141" rx="2.5" ry="2.5" style="stroke:#181818;stroke-width:0.5;" width="146.9082" x="1348.5" y="809.2969"/><text fill="#000000" font-family="sans-serif" font-size="11" lengthAdjust="spacing" textLength="126.9082" x="1358.5" y="829.5073">BlockDeviceSpdkNvme</text><text fill="#000000" font-family="sans-serif" font-size="11" lengthAdjust="spacing" textLength="84.0737" x="1358.5" y="842.312">&#171;IBlockDevice&#187;</text><text fill="#000000" font-family="sans-serif" font-size="11" lengthAdjust="spacing" textLength="119.3242" x="1358.5" y="855.1167">&#171;IBlockDeviceAdmin&#187;</text></g><!--entity extmgr--><g class="entity" data-entity="extmgr" data-source-line="39" data-uid="ent0025" id="entity_extmgr"><rect fill="#F5DEB3" height="45.6094" rx="2.5" ry="2.5" style="stroke:#181818;stroke-width:0.5;" width="120.7456" x="1374.5" y="683.2969"/><text fill="#000000" font-family="sans-serif" font-size="11" lengthAdjust="spacing" textLength="84.0415" x="1384.5" y="703.5073">ExtentManager</text><text fill="#000000" font-family="sans-serif" font-size="11" lengthAdjust="spacing" textLength="100.7456" x="1384.5" y="716.312">&#171;IExtentManager&#187;</text></g><!--entity remotelookup--><g class="entity" data-entity="remotelookup" data-source-line="43" data-uid="ent0027" id="entity_remotelookup"><rect fill="#F08080" height="58.4141" rx="2.5" ry="2.5" style="stroke:#181818;stroke-width:0.5;" width="166.7114" x="542.5" y="526.2969"/><text fill="#000000" font-family="sans-serif" font-size="11" lengthAdjust="spacing" textLength="146.7114" x="552.5" y="546.5073">RemoteLookupComponent</text><text fill="#000000" font-family="sans-serif" font-size="11" lengthAdjust="spacing" textLength="99.5532" x="552.5" y="559.312">&#171;IRemoteLookup&#187;</text><text fill="#000000" font-family="sans-serif" font-size="11" lengthAdjust="spacing" textLength="132.4028" x="552.5" y="572.1167">forward misses to peers</text></g><!--entity remotehandler--><g class="entity" data-entity="remotehandler" data-source-line="44" data-uid="ent0028" id="entity_remotehandler"><rect fill="#F08080" height="58.4141" rx="2.5" ry="2.5" style="stroke:#181818;stroke-width:0.5;" width="215.2876" x="292.5" y="526.2969"/><text fill="#000000" font-family="sans-serif" font-size="11" lengthAdjust="spacing" textLength="195.2876" x="302.5" y="546.5073">RemoteRequestHandlerComponent</text><text fill="#000000" font-family="sans-serif" font-size="11" lengthAdjust="spacing" textLength="148.1294" x="302.5" y="559.312">&#171;IRemoteRequestHandler&#187;</text><text fill="#000000" font-family="sans-serif" font-size="11" lengthAdjust="spacing" textLength="172.2349" x="302.5" y="572.1167">serve incoming RDMA requests</text></g><!--entity nvme--><g class="entity" data-entity="nvme" data-source-line="48" data-uid="ent0029" id="entity_nvme"><path d="M1592,955.2969 C1592,945.2969 1638.1287,945.2969 1638.1287,945.2969 C1638.1287,945.2969 1684.2573,945.2969 1684.2573,955.2969 L1684.2573,977.1016 C1684.2573,987.1016 1638.1287,987.1016 1638.1287,987.1016 C1638.1287,987.1016 1592,987.1016 1592,977.1016 L1592,955.2969" fill="#D3D3D3" style="stroke:#181818;stroke-width:0.5;"/><path d="M1592,955.2969 C1592,965.2969 1638.1287,965.2969 1638.1287,965.2969 C1638.1287,965.2969 1684.2573,965.2969 1684.2573,955.2969" fill="none" style="stroke:#181818;stroke-width:0.5;"/><text fill="#000000" font-family="sans-serif" font-size="11" lengthAdjust="spacing" textLength="72.2573" x="1602" y="979.5073">NVMe SSD(s)</text></g><!--entity peers--><g class="entity" data-entity="peers" data-source-line="49" data-uid="ent0030" id="entity_peers"><path d="M112.336,688.1051 C114.5255,682.3344 119.8757,681.4995 123.8933,686.0601 C127.6172,681.0416 131.1144,679.5006 135.5722,685.2651 C139.1148,680.8426 144.3551,681.21 147.0983,686.2399 C150.6388,680.3741 154.3615,679.3497 158.788,685.3685 C162.0343,679.0116 166.0661,678.8819 170.4313,684.2582 C175.2011,678.1622 179.2922,679.6657 182.6933,685.6477 C186.0645,679.4009 189.8839,679.902 193.7856,685.1351 C197.1801,679.4552 203.2954,679.7324 206.1565,685.7016 C210.3207,680.8576 215.7576,680.6583 217.9373,687.6731 C221.3785,682.4313 225.7328,683.5745 228.6472,688.2424 C239.4441,692.0021 241.6985,697.9157 236.011,707.8623 C242.2958,716.9486 242.2412,724.4243 229.5436,727.1433 C226.3707,733.4301 222.1621,732.3101 218.2555,727.9189 C216.3592,734.4599 210.6205,734.8881 206.6964,729.9632 C203.6608,735.5738 198.0044,735.4094 194.931,730.0036 C192.2048,735.7868 186.6421,737.0748 182.9874,730.9336 C180.9131,736.227 175.7291,737.773 172.1324,732.4972 C167.8707,738.5703 163.4457,738.1743 159.967,731.7359 C155.1497,736.5466 151.4222,735.7252 148.3325,729.8541 C144.4182,735.7267 138.3638,735.2293 136.0259,728.3346 C132.3351,732.3857 128.3935,733.3785 125.4277,727.5565 C121.71,732.2312 116.4556,733.5169 113.3192,726.9314 C103.2067,722.6044 101.5525,714.5993 110.5847,707.5686 C100.6526,701.3552 102.1732,692.5105 112.336,688.1051" fill="#F08080" style="stroke:#181818;stroke-width:0.5;"/><text fill="#000000" font-family="sans-serif" font-size="11" lengthAdjust="spacing" textLength="102.1099" x="119" y="703.5073">Peer Certus Nodes</text><text fill="#000000" font-family="sans-serif" font-size="11" lengthAdjust="spacing" textLength="69.3247" x="119" y="716.312">(full-remote)</text></g><!--link client to client_gpu--><g class="link" data-entity-1="client" data-entity-2="client_gpu" data-source-line="11" data-uid="lnk5" id="link_client_client_gpu"><path d="M101.32,121.3669 C95.8,154.5069 86.3664,211.0985 80.4264,246.7385" fill="none" id="client-to-client_gpu" style="stroke:#181818;stroke-width:1;"/><polygon fill="#181818" points="79.44,252.6569,84.8652,244.4369,80.262,247.7249,76.974,243.1217,79.44,252.6569" style="stroke:#181818;stroke-width:1;"/><text fill="#000000" font-family="sans-serif" font-size="11" lengthAdjust="spacing" textLength="128.3853" x="98" y="162.5073">cudaIpcGetMemHandle</text></g><!--link client to rpcs--><g class="link" data-entity-1="client" data-entity-2="rpcs" data-source-line="52" data-uid="lnk31" id="link_client_rpcs"><path d="M161.04,116.7169 C261.44,147.9269 467.0204,211.8459 588.0504,249.4659" fill="none" id="client-to-rpcs" style="stroke:#181818;stroke-width:1;"/><polygon fill="#181818" points="593.78,251.2469,586.3729,244.7557,589.0053,249.7628,583.9983,252.3952,593.78,251.2469" style="stroke:#181818;stroke-width:1;"/><text fill="#000000" font-family="sans-serif" font-size="11" lengthAdjust="spacing" textLength="28.9395" x="309" y="162.5073">gRPC</text></g><!--link client_gpu to gpu--><g class="link" data-entity-1="client_gpu" data-entity-2="gpu" data-source-line="53" data-uid="lnk32" id="link_client_gpu_gpu"><path d="M67.14,307.9169 C60.14,334.0169 51,375.0369 51,411.2969 C51,411.2969 51,411.2969 51,707.2969 C51,772.6369 507.0994,816.0245 693.4594,831.0545" fill="none" id="client_gpu-to-gpu" style="stroke:#181818;stroke-width:1;stroke-dasharray:7,7;"/><polygon fill="#181818" points="699.44,831.5369,690.7907,826.8263,694.4562,831.1349,690.1476,834.8004,699.44,831.5369" style="stroke:#181818;stroke-width:1;"/><text fill="#000000" font-family="sans-serif" font-size="11" lengthAdjust="spacing" textLength="52.7817" x="52" y="559.5073">CUDA IPC</text></g><!--link rpcs to dispatcher--><g class="link" data-entity-1="rpcs" data-entity-2="dispatcher" data-source-line="56" data-uid="lnk33" id="link_rpcs_dispatcher"><path d="M778.81,309.3069 C811.34,320.3469 847.47,334.2669 879,350.2969 C900.54,361.2469 918.1533,373.0792 935.1033,385.6692" fill="none" id="rpcs-to-dispatcher" style="stroke:#181818;stroke-width:1;"/><polygon fill="#181818" points="939.92,389.2469,935.0801,380.6692,935.9061,386.2655,930.3099,387.0915,939.92,389.2469" style="stroke:#181818;stroke-width:1;"/></g><!--link dispatcher to dispmap--><g class="link" data-entity-1="dispatcher" data-entity-2="dispmap" data-source-line="59" data-uid="lnk34" id="link_dispatcher_dispmap"><path d="M935.27,435.4369 C917.25,448.8469 895.47,467.2169 880,487.2969 C833.25,547.9769 802.6188,627.612 787.8588,671.342" fill="none" id="dispatcher-to-dispmap" style="stroke:#181818;stroke-width:1;"/><polygon fill="#181818" points="785.94,677.0269,792.6081,669.7787,787.539,672.2895,785.0283,667.2203,785.94,677.0269" style="stroke:#181818;stroke-width:1;"/><text fill="#000000" font-family="sans-serif" font-size="11" lengthAdjust="spacing" textLength="76.7637" x="881" y="559.5073">dispatch_map</text></g><!--link dispatcher to memtier--><g class="link" data-entity-1="dispatcher" data-entity-2="memtier" data-source-line="60" data-uid="lnk35" id="link_dispatcher_memtier"><path d="M967.77,435.7269 C967.23,488.2069 965.9521,612.9472 965.3521,670.8872" fill="none" id="dispatcher-to-memtier" style="stroke:#181818;stroke-width:1;"/><polygon fill="#181818" points="965.29,676.8869,969.383,667.9288,965.3418,671.8871,961.3834,667.8459,965.29,676.8869" style="stroke:#181818;stroke-width:1;"/><text fill="#000000" font-family="sans-serif" font-size="11" lengthAdjust="spacing" textLength="70.1196" x="968" y="559.5073">memory_tier</text></g><!--link dispatcher to gpu--><g class="link" data-entity-1="dispatcher" data-entity-2="gpu" data-source-line="61" data-uid="lnk36" id="link_dispatcher_gpu"><path d="M896.28,435.3669 C865.52,447.2969 830.63,464.3669 804,487.2969 C755.52,529.0569 770.65,562.4769 726,608.2969 C709.48,625.2469 693.06,617.3669 682,638.2969 C661.86,676.4169 666.32,695.1369 682,735.2969 C694.79,768.0469 718.9373,792.7918 741.3073,811.3018" fill="none" id="dispatcher-to-gpu" style="stroke:#181818;stroke-width:1;"/><polygon fill="#181818" points="745.93,815.1269,741.546,806.3075,742.0778,811.9394,736.446,812.4711,745.93,815.1269" style="stroke:#181818;stroke-width:1;"/><text fill="#000000" font-family="sans-serif" font-size="11" lengthAdjust="spacing" textLength="71.5698" x="716" y="627.5073">gpu_services</text></g><!--link dispatcher to spdk--><g class="link" data-entity-1="dispatcher" data-entity-2="spdk" data-source-line="62" data-uid="lnk37" id="link_dispatcher_spdk"><path d="M997.1,435.5569 C1013.38,449.1469 1033.13,467.6469 1047,487.2969 C1092.58,551.8969 1121.3888,636.0951 1133.8888,677.3151" fill="none" id="dispatcher-to-spdk" style="stroke:#181818;stroke-width:1;"/><polygon fill="#181818" points="1135.63,683.0569,1136.8461,673.2834,1134.179,678.272,1129.1903,675.605,1135.63,683.0569" style="stroke:#181818;stroke-width:1;"/><text fill="#000000" font-family="sans-serif" font-size="11" lengthAdjust="spacing" textLength="51.8149" x="1110" y="559.5073">spdk_env</text></g><!--link dispatcher to remotelookup--><g class="link" data-entity-1="dispatcher" data-entity-2="remotelookup" data-source-line="63" data-uid="lnk38" id="link_dispatcher_remotelookup"><path d="M896.26,431.7569 C890.44,433.0269 884.63,434.2269 879,435.2969 C829.22,444.7269 691.61,432.4969 653,465.2969 C635.52,480.1369 629.7949,499.9338 627.5649,519.9338" fill="none" id="dispatcher-to-remotelookup" style="stroke:#181818;stroke-width:1;"/><polygon fill="#181818" points="626.9,525.8969,631.8727,517.3956,627.4541,520.9277,623.922,516.5091,626.9,525.8969" style="stroke:#181818;stroke-width:1;"/><text fill="#000000" font-family="sans-serif" font-size="11" lengthAdjust="spacing" textLength="82.1563" x="654" y="476.5073">remote_lookup</text></g><!--link dispatcher to logger--><g class="link" data-entity-1="dispatcher" data-entity-2="logger" data-source-line="64" data-uid="lnk39" id="link_dispatcher_logger"><path d="M1039.59,432.1469 C1089.97,446.7369 1151.58,467.7069 1170,487.2969 C1208.43,528.1769 1181.6,557.7769 1206,608.2969 C1213.08,622.9569 1219.45,623.8769 1227,638.2969 C1254.93,691.6069 1263.39,706.0569 1274,765.2969 C1291.97,865.6369 1163.4279,921.6506 1081.0179,947.3506" fill="none" id="dispatcher-to-logger" style="stroke:#181818;stroke-width:1;"/><polygon fill="#181818" points="1075.29,949.1369,1085.0728,950.2761,1080.0633,947.6483,1082.691,942.6388,1075.29,949.1369" style="stroke:#181818;stroke-width:1;"/><text fill="#000000" font-family="sans-serif" font-size="11" lengthAdjust="spacing" textLength="35.041" x="1268" y="710.5073">logger</text></g><!--link drives to blkdev--><g class="link" data-entity-1="drives" data-entity-2="blkdev" data-source-line="67" data-uid="lnk40" id="link_drives_blkdev"><path d="M1461.94,571.9269 C1478.13,587.1469 1501.16,611.7969 1513,638.2969 C1538.77,695.9769 1563.53,725.1369 1531,779.2969 C1522.67,793.1669 1514.9456,800.8715 1500.8956,809.1115" fill="none" id="drives-to-blkdev" style="stroke:#181818;stroke-width:1;"/><polygon fill="#181818" points="1495.72,812.1469,1505.5069,811.0442,1500.033,809.6174,1501.4598,804.1435,1495.72,812.1469" style="stroke:#181818;stroke-width:1;"/></g><!--link drives to extmgr--><g class="link" data-entity-1="drives" data-entity-2="extmgr" data-source-line="68" data-uid="lnk41" id="link_drives_extmgr"><path d="M1443.05,571.9569 C1441.45,598.5569 1438.5415,646.6478 1436.7015,677.1278" fill="none" id="drives-to-extmgr" style="stroke:#181818;stroke-width:1;"/><polygon fill="#181818" points="1436.34,683.1169,1440.8751,674.3743,1436.6413,678.126,1432.8896,673.8922,1436.34,683.1169" style="stroke:#181818;stroke-width:1;"/></g><!--link extmgr to blkdev--><g class="link" data-entity-1="extmgr" data-entity-2="blkdev" data-source-line="69" data-uid="lnk42" id="link_extmgr_blkdev"><path d="M1431.57,729.5669 C1430,740.3369 1428.23,753.4669 1427,765.2969 C1425.5,779.7569 1424.7132,789.9085 1423.8832,803.2285" fill="none" id="extmgr-to-blkdev" style="stroke:#181818;stroke-width:1;"/><polygon fill="#181818" points="1423.51,809.2169,1428.062,800.4831,1423.821,804.2266,1420.0775,799.9855,1423.51,809.2169" style="stroke:#181818;stroke-width:1;"/><text fill="#000000" font-family="sans-serif" font-size="11" lengthAdjust="spacing" textLength="94.9448" x="1428" y="776.5073">metadata_device</text></g><!--link blkdev to spdk--><g class="link" data-entity-1="blkdev" data-entity-2="spdk" data-source-line="70" data-uid="lnk43" id="link_blkdev_spdk"><path d="M1361.55,809.2269 C1310,785.2969 1242.3721,753.8934 1194.9421,731.8734" fill="none" id="blkdev-to-spdk" style="stroke:#181818;stroke-width:1;"/><polygon fill="#181818" points="1189.5,729.3469,1195.9788,736.7648,1194.0351,731.4523,1199.3475,729.5087,1189.5,729.3469" style="stroke:#181818;stroke-width:1;"/><text fill="#000000" font-family="sans-serif" font-size="11" lengthAdjust="spacing" textLength="51.8149" x="1291" y="776.5073">spdk_env</text></g><!--link blkdev to logger--><g class="link" data-entity-1="blkdev" data-entity-2="logger" data-source-line="71" data-uid="lnk44" id="link_blkdev_logger"><path d="M1379.3,867.4569 C1353.76,883.1169 1320.13,901.7169 1288,913.2969 C1217.29,938.7969 1137.5267,951.7671 1081.0067,958.5971" fill="none" id="blkdev-to-logger" style="stroke:#181818;stroke-width:1;"/><polygon fill="#181818" points="1075.05,959.3169,1084.4649,962.2083,1080.0139,958.717,1083.5051,954.266,1075.05,959.3169" style="stroke:#181818;stroke-width:1;"/></g><!--link extmgr to logger--><g class="link" data-entity-1="extmgr" data-entity-2="logger" data-source-line="72" data-uid="lnk45" id="link_extmgr_logger"><path d="M1489.56,729.4869 C1504.37,738.3169 1518.61,750.0869 1527,765.2969 C1545.34,798.5369 1641.43,759.8969 1513,891.2969 C1453.31,952.3669 1201.0294,963.2487 1081.3294,965.0087" fill="none" id="extmgr-to-logger" style="stroke:#181818;stroke-width:1;"/><polygon fill="#181818" points="1075.33,965.0969,1084.3878,968.9641,1080.3295,965.0234,1084.2702,960.965,1075.33,965.0969" style="stroke:#181818;stroke-width:1;"/></g><!--link dispmap to eviction--><g class="link" data-entity-1="dispmap" data-entity-2="eviction" data-source-line="75" data-uid="lnk46" id="link_dispmap_eviction"><path d="M831.7,735.3569 C849.71,744.7369 869.78,755.3369 888,765.2969 C917.84,781.6169 946.0591,797.7378 970.9691,812.1778" fill="none" id="dispmap-to-eviction" style="stroke:#181818;stroke-width:1;"/><polygon fill="#181818" points="976.16,815.1869,970.3797,807.2126,971.8343,812.6793,966.3676,814.1338,976.16,815.1869" style="stroke:#181818;stroke-width:1;"/><text fill="#000000" font-family="sans-serif" font-size="11" lengthAdjust="spacing" textLength="81.3345" x="913" y="776.5073">eviction_policy</text></g><!--link dispmap to logger--><g class="link" data-entity-1="dispmap" data-entity-2="logger" data-source-line="76" data-uid="lnk47" id="link_dispmap_logger"><path d="M807.25,735.6269 C826.84,755.0669 851.96,782.1569 870,809.2969 C892.23,842.7469 882.2,860.5169 908,891.2969 C925.73,912.4569 945.7629,927.2668 967.1229,940.1568" fill="none" id="dispmap-to-logger" style="stroke:#181818;stroke-width:1;"/><polygon fill="#181818" points="972.26,943.2569,966.6211,935.1821,967.9791,940.6735,962.4877,942.0315,972.26,943.2569" style="stroke:#181818;stroke-width:1;"/></g><!--link memtier to eviction--><g class="link" data-entity-1="memtier" data-entity-2="eviction" data-source-line="77" data-uid="lnk48" id="link_memtier_eviction"><path d="M993.1,735.4569 C1000.24,744.2969 1007.01,754.5769 1011,765.2969 C1016.93,781.2469 1017.7626,794.5772 1016.9026,809.1872" fill="none" id="memtier-to-eviction" style="stroke:#181818;stroke-width:1;"/><polygon fill="#181818" points="1016.55,815.1769,1021.0719,806.4275,1016.8438,810.1855,1013.0858,805.9574,1016.55,815.1769" style="stroke:#181818;stroke-width:1;"/><text fill="#000000" font-family="sans-serif" font-size="11" lengthAdjust="spacing" textLength="81.3345" x="1015" y="776.5073">eviction_policy</text></g><!--link memtier to logger--><g class="link" data-entity-1="memtier" data-entity-2="logger" data-source-line="78" data-uid="lnk49" id="link_memtier_logger"><path d="M1040.01,732.0769 C1067.86,742.5469 1095.1,754.7469 1105,765.2969 C1119.13,780.3669 1116.62,788.9169 1120,809.2969 C1125.96,845.2469 1136.85,858.9869 1120,891.2969 C1108.17,913.9869 1091.0714,928.1635 1069.9514,940.2135" fill="none" id="memtier-to-logger" style="stroke:#181818;stroke-width:1;"/><polygon fill="#181818" points="1064.74,943.1869,1074.5394,942.2011,1069.0829,940.7091,1070.5749,935.2525,1064.74,943.1869" style="stroke:#181818;stroke-width:1;"/></g><!--link gpu to logger--><g class="link" data-entity-1="gpu" data-entity-2="logger" data-source-line="79" data-uid="lnk50" id="link_gpu_logger"><path d="M803.02,861.3669 C823.33,877.2369 852.3,898.3669 880,913.2969 C902.96,925.6669 923.8697,934.5334 947.2497,943.1434" fill="none" id="gpu-to-logger" style="stroke:#181818;stroke-width:1;"/><polygon fill="#181818" points="952.88,945.2169,945.8168,938.3531,948.188,943.489,943.0522,945.8603,952.88,945.2169" style="stroke:#181818;stroke-width:1;"/></g><!--link eviction to logger--><g class="link" data-entity-1="eviction" data-entity-2="logger" data-source-line="80" data-uid="lnk51" id="link_eviction_logger"><path d="M1014,861.5369 C1014,884.5669 1014,914.3369 1014,937.2869" fill="none" id="eviction-to-logger" style="stroke:#181818;stroke-width:1;"/><polygon fill="#181818" points="1014,943.2869,1018,934.2869,1014,938.2869,1010,934.2869,1014,943.2869" style="stroke:#181818;stroke-width:1;"/></g><!--link remotelookup to logger--><g class="link" data-entity-1="remotelookup" data-entity-2="logger" data-source-line="81" data-uid="lnk52" id="link_remotelookup_logger"><path d="M621.29,584.6069 C612.39,648.5969 600.67,805.4869 682,891.2969 C718.51,929.8169 861.4633,950.0958 946.9333,959.1358" fill="none" id="remotelookup-to-logger" style="stroke:#181818;stroke-width:1;"/><polygon fill="#181818" points="952.9,959.7669,944.3706,954.8424,947.9277,959.241,943.5292,962.7981,952.9,959.7669" style="stroke:#181818;stroke-width:1;"/></g><!--link remotehandler to dispatcher--><g class="link" data-entity-1="remotehandler" data-entity-2="dispatcher" data-source-line="84" data-uid="lnk53" id="link_remotehandler_dispatcher"><path d="M450.71,526.1869 C473.29,513.9169 500.3,499.5569 525,487.2969 C546.02,476.8569 550.34,471.4169 573,465.2969 C704.93,429.6769 744.32,458.4169 879,435.2969 C884.65,434.3269 884.5992,434.4355 890.4292,433.2055" fill="none" id="remotehandler-to-dispatcher" style="stroke:#181818;stroke-width:1;"/><polygon fill="#181818" points="896.3,431.9669,886.6681,429.9109,891.4077,432.999,888.3196,437.7386,896.3,431.9669" style="stroke:#181818;stroke-width:1;"/><text fill="#000000" font-family="sans-serif" font-size="11" lengthAdjust="spacing" textLength="58.1152" x="574" y="476.5073">dispatcher</text></g><!--link remotehandler to logger--><g class="link" data-entity-1="remotehandler" data-entity-2="logger" data-source-line="85" data-uid="lnk54" id="link_remotehandler_logger"><path d="M455.16,584.3769 C469.03,593.2469 483.07,603.9969 494,616.2969 C584.19,717.7769 527.14,799.3169 627,891.2969 C673.67,934.2769 849.9179,953.3635 946.7479,960.8635" fill="none" id="remotehandler-to-logger" style="stroke:#181818;stroke-width:1;"/><polygon fill="#181818" points="952.73,961.3269,944.0658,956.6438,947.7449,960.9408,943.448,964.6199,952.73,961.3269" style="stroke:#181818;stroke-width:1;"/></g><!--link blkdev to nvme--><g class="link" data-entity-1="blkdev" data-entity-2="nvme" data-source-line="88" data-uid="lnk55" id="link_blkdev_nvme"><path d="M1470.21,867.4169 C1510.74,891.0569 1562.4972,921.2538 1598.5172,942.2638" fill="none" id="blkdev-to-nvme" style="stroke:#181818;stroke-width:1;"/><polygon fill="#181818" points="1603.7,945.2869,1597.9412,937.2971,1599.381,942.7677,1593.9105,944.2075,1603.7,945.2869" style="stroke:#181818;stroke-width:1;"/><text fill="#000000" font-family="sans-serif" font-size="11" lengthAdjust="spacing" textLength="58.7598" x="1543" y="910.5073">VFIO/SPDK</text></g><!--link spdk to nvme--><g class="link" data-entity-1="spdk" data-entity-2="nvme" data-source-line="89" data-uid="lnk56" id="link_spdk_nvme"><path d="M1209.15,728.8969 C1218.11,731.3069 1227.24,733.5269 1236,735.2969 C1296.48,747.4869 1458.58,734.4369 1512,765.2969 C1582.18,805.8369 1617.2808,897.1399 1630.4708,939.3599" fill="none" id="spdk-to-nvme" style="stroke:#181818;stroke-width:1;"/><polygon fill="#181818" points="1632.26,945.0869,1633.3942,935.3035,1630.769,940.3144,1625.7582,937.6891,1632.26,945.0869" style="stroke:#181818;stroke-width:1;"/><text fill="#000000" font-family="sans-serif" font-size="11" lengthAdjust="spacing" textLength="55.0967" x="1612" y="842.5073">DPDK/EAL</text></g><!--link remotelookup to peers--><g class="link" data-entity-1="remotelookup" data-entity-2="peers" data-source-line="92" data-uid="lnk57" id="link_remotelookup_peers"><path d="M576.61,584.3369 C560.48,592.7769 542.28,601.5769 525,608.2969 C427.05,646.4069 314.2584,674.3012 241.9584,690.2912" fill="none" id="remotelookup-to-peers" style="stroke:#181818;stroke-width:1;"/><polygon fill="#181818" points="236.1,691.5869,245.7514,693.549,240.982,690.5072,244.0239,685.7378,236.1,691.5869" style="stroke:#181818;stroke-width:1;"/><text fill="#000000" font-family="sans-serif" font-size="11" lengthAdjust="spacing" textLength="93.9458" x="498" y="627.5073">RDMA (outgoing)</text></g><!--link peers to remotehandler--><g class="link" data-entity-1="peers" data-entity-2="remotehandler" data-source-line="93" data-uid="lnk58" id="link_peers_remotehandler"><path d="M176.91,677.9969 C183.23,658.2769 194.48,632.3969 213,616.2969 C235.39,596.8369 258.4276,585.4809 286.6576,576.5809" fill="none" id="peers-to-remotehandler" style="stroke:#181818;stroke-width:1;"/><polygon fill="#181818" points="292.38,574.7769,282.5938,573.6681,287.6114,576.2803,284.9992,581.2979,292.38,574.7769" style="stroke:#181818;stroke-width:1;"/><text fill="#000000" font-family="sans-serif" font-size="11" lengthAdjust="spacing" textLength="95.7397" x="214" y="627.5073">RDMA (incoming)</text></g><!--link bgwriter to drives--><g class="link" data-entity-1="bgwriter" data-entity-2="drives" data-source-line="96" data-uid="lnk59" id="link_bgwriter_drives"><path d="M1296.59,428.8369 C1314.43,443.7669 1342.12,466.9969 1366,487.2969 C1386.54,504.7569 1405.4477,521.0067 1421.2177,534.6167" fill="none" id="bgwriter-to-drives" style="stroke:#181818;stroke-width:1;"/><polygon fill="#181818" points="1425.76,538.5369,1421.56,529.6285,1421.9748,535.2701,1416.3331,535.6849,1425.76,538.5369" style="stroke:#181818;stroke-width:1;"/><text fill="#000000" font-family="sans-serif" font-size="11" lengthAdjust="spacing" textLength="75.0879" x="1357" y="476.5073">write-through</text></g><!--link bgevictor to drives--><g class="link" data-entity-1="bgevictor" data-entity-2="drives" data-source-line="97" data-uid="lnk60" id="link_bgevictor_drives"><path d="M1453.78,428.9269 C1451.67,456.0269 1447.8071,505.4651 1445.6871,532.6151" fill="none" id="bgevictor-to-drives" style="stroke:#181818;stroke-width:1;"/><polygon fill="#181818" points="1445.22,538.5969,1449.9085,529.9356,1445.6092,533.612,1441.9328,529.3128,1445.22,538.5969" style="stroke:#181818;stroke-width:1;"/><text fill="#000000" font-family="sans-serif" font-size="11" lengthAdjust="spacing" textLength="71.5645" x="1451" y="476.5073">evict extents</text></g><!--link pipeline to memtier--><g class="link" data-entity-1="pipeline" data-entity-2="memtier" data-source-line="98" data-uid="lnk61" id="link_pipeline_memtier"><path d="M1163.28,427.4169 C1181.07,435.5169 1199.77,447.6669 1210,465.2969 C1234.2,506.9969 1352.05,433.4269 1172,608.2969 C1134.42,644.7969 1105.38,615.9469 1058,638.2969 C1036.4,648.4869 1019.3321,660.1325 1002.2821,673.5725" fill="none" id="pipeline-to-memtier" style="stroke:#181818;stroke-width:1;"/><polygon fill="#181818" points="997.57,677.2869,1007.1143,674.8567,1001.4967,674.1916,1002.1618,668.574,997.57,677.2869" style="stroke:#181818;stroke-width:1;"/><text fill="#000000" font-family="sans-serif" font-size="11" lengthAdjust="spacing" textLength="84.8633" x="1271" y="559.5073">pipelined reads</text></g><!--SRC=[XLRDRjiu4BxhAOZai0aA9zkhKHX8x2GDQcSDEsaFwy1WfB54c2Ar9EN4NHJOXzWdt2Vfy4SIPQVO71nnvflX_0_rbecAAbgIL9QL523Cqkmv40MfeIBdaEWMKj5qItFuDI233QsvkPMeXNq7yl5ZnDG5pUGh4pdPKAuXIGmpg6SCojIQB47jG97__lcNR6hE1mfAQO3CbTmml2C9TvEJCMTef6MaeFK9-JiX-FVdtVo9UDPAdEscqncv9FFzerHfSVvCg2QfOpfmHWrzeHgLMQaPtgJsAEKH60XXuCsSdtHIwxogdMI030QZY4E69AqpUb-bTs1GssSgCZJvHsHqwfmSQE_aWUqjAb_CnouGB0KofNk4dXafM7hUG9shSrdLd69mBibKocrTuSUuW7Ix4WlqPMSPZx9E2qldG9Nty961MebRNklYKIvrvgAYgbGxpMXjpvO9qnKrQG7AnI73OxNDOpCwnBWfdPNuzEc-euz6pusi9v3JASiBSyrhYFHWDYQAeTc_NrmyU0bxrEJqMm7KH8vZ7N4E_1gDp9MiHVPDCGFAoRpah-v0JhyKTCiwgGvzWu4rie63FntXvwm2pWGii5GTj0g48-GhLULQ6mMqT41xziSOUXZPiLHOzKt8T2-ro_daoutOzGCQY26Qkigs8OvtYkuxsRkg3hMZ-_8H8-YmHTke012T3XSX9iLSSfRkfwhkQ-gpWp88H9ikJ42dh2kxlfQEFXgjH5dIYbHISlA1J1TFJcK9fM6_AfTGJJDQlLztoB1wjx0dsAPSfjHPnqG6RsqzsalVqpwLUNvehwS5RxaxnBuUTKvJpxvnyEJAEKxpDLgrdTZ0mHBJ-R0hmTqKqQqBVSfLLZ8Hh7ZXsmnsHmroysRGw1aLQ8Zo6OifJSBUJ9chMFZGXOKVlcEAJUi7aVF5p-GrTvCfSiV3_IpgXoxcM8ysKc6JPAHaMcE36qag0AMVE-tSJpIV6smLoW_lMS1VDMZZfwnwxxu-mjxh1Y-M02uvku0MazaLtkTGyUM5bpYw_OSTvjtMUFWw0x9SJiwqNn82ynUtPCfbdP6JERhMhBS7cO767HFjDY_h_EzTcFmM5fdTH09SR-aasZnsPkFEiTiYYRRGnSM8-6qqVffSaNlaeYgtKp3EtH1EdBnL5D4GsSrjkzkXCZJbe9DeUZSojdc6hVGQZuUefe67zWkRVMrFXo1lBFwkTHXFXmWtwuRktnh4xf3TgvXXMvxkV8WDVJiC7yxXTl4mtFXAuAia2Pl7IlWUYoc-SPBGFnt6kObjZlhMcUlL933USo9Y1LiYXPrrItnTPRPNseSPUMKAgpTfKk1CQeRliFrSLsuwzs11RPEM_v6COK7IvYgsk16EQBriz7q9yyGFZk15l-FwvHXLLwiuHdQQFsE4SABq0kxQSKY-tjx_SMbtP-8o474cIBoykPf6fiMjTkI8xz6X7njdiZQvH0_E4q_lAh4niK4sy-RSNjGzGuWfy8sGwQHziZZlVPqDYQCD42Fhl4YwTqeFv8Ys8EqJ8cbVAFtUQyWPyVVz1000]--></g></svg>