<svg xmlns="http://www.w3.org/2000/svg" xmlns:xlink="http://www.w3.org/1999/xlink" contentStyleType="text/css" data-diagram-type="DESCRIPTION" height="1186px" preserveAspectRatio="none" style="width:1627px;height:1186px;background:#FFFFFF;" version="1.1" viewBox="0 0 1627 1186" width="1627px" zoomAndPan="magnify"><title>Certus Server &#8212; full Profile</title><defs/><g><g class="title" data-source-line="13"><text fill="#000000" font-family="sans-serif" font-size="14" font-weight="bold" lengthAdjust="spacing" textLength="214.792" x="699.104" y="26.9951">Certus Server &#8212; full Profile</text></g><!--cluster client_box--><g class="cluster" data-entity="client_box" data-source-line="18" data-uid="ent0002" id="cluster_client_box"><rect fill="#F5F5F5" height="147" rx="7.5" ry="7.5" style="stroke:#181818;stroke-width:1;" width="357" x="1157" y="52.2969"/><text fill="#000000" font-family="sans-serif" font-size="14" font-weight="bold" lengthAdjust="spacing" textLength="87.2607" x="1291.8696" y="71.292">Client Host</text></g><!--cluster server_box--><g class="cluster" data-entity="server_box" data-source-line="26" data-uid="ent0005" id="cluster_server_box"><rect fill="#FAFAFA" height="924" rx="7.5" ry="7.5" style="stroke:#181818;stroke-width:1;" width="1614" x="7" y="256.2969"/><text fill="#000000" font-family="sans-serif" font-size="14" font-weight="bold" lengthAdjust="spacing" textLength="93.2422" x="767.3789" y="275.292">Server Host</text></g><!--cluster server_proc--><g class="cluster" data-entity="server_proc" data-source-line="28" data-uid="ent0006" id="cluster_server_proc"><rect fill="#FFFFFF" height="738" rx="7.5" ry="7.5" style="stroke:#181818;stroke-width:1;" width="1411" x="31" y="307.2969"/><text fill="#000000" font-family="sans-serif" font-size="14" font-weight="bold" lengthAdjust="spacing" textLength="105.7588" x="683.6206" y="326.292">certus-server</text></g><!--cluster dispatcher--><g class="cluster" data-entity="dispatcher" data-source-line="32" data-uid="ent0008" id="cluster_dispatcher"><rect fill="#DBEAFE" height="390" rx="7.5" ry="7.5" style="stroke:#181818;stroke-width:1;" width="644" x="602" y="528.2969"/><text fill="#000000" font-family="sans-serif" font-size="14" font-weight="bold" lengthAdjust="spacing" textLength="85.5791" x="824.3354" y="547.292">Dispatcher</text><text fill="#000000" font-family="sans-serif" font-size="14" font-weight="bold" lengthAdjust="spacing" textLength="108.876" x="914.7886" y="547.292">&#171;IDispatcher&#187;</text></g><!--cluster data_drive--><g class="cluster" data-entity="data_drive" data-source-line="33" data-uid="ent0009" id="cluster_data_drive"><rect fill="#FEF3C7" height="299" rx="7.5" ry="7.5" style="stroke:#181818;stroke-width:1;" width="222" x="992" y="587.2969"/><text fill="#000000" font-family="sans-serif" font-size="14" font-weight="bold" lengthAdjust="spacing" textLength="128.9189" x="1038.5405" y="606.292">DataDrive [0..N]</text></g><!--entity pyclient--><g class="entity" data-entity="pyclient" data-source-line="19" data-uid="ent0003" id="entity_pyclient"><rect fill="#F1F1F1" height="60.5938" rx="5" ry="5" style="stroke:#181818;stroke-width:0.5;" width="144.6758" x="1173.5" y="122.2969"/><text fill="#000000" font-family="sans-serif" font-size="14" lengthAdjust="spacing" textLength="74.5186" x="1208.5786" y="149.292">GPU Client</text><text fill="#000000" font-family="sans-serif" font-size="14" lengthAdjust="spacing" textLength="116.6758" x="1187.5" y="165.5889">(vLLM / PyTorch)</text></g><!--entity client_gpu--><g class="entity" data-entity="client_gpu" data-source-line="20" data-uid="ent0004" id="entity_client_gpu"><rect fill="#90EE90" height="44.2969" rx="5" ry="5" style="stroke:#181818;stroke-width:0.5;" width="118.9248" x="1378.5" y="130.7969"/><text fill="#000000" font-family="sans-serif" font-size="14" lengthAdjust="spacing" textLength="90.9248" x="1392.5" y="157.792">GPU Memory</text></g><!--entity server_gpu--><g class="entity" data-entity="server_gpu" data-source-line="48" data-uid="ent0019" id="entity_server_gpu"><rect fill="#90EE90" height="60.5938" rx="5" ry="5" style="stroke:#181818;stroke-width:0.5;" width="118.9248" x="1485.5" y="809.2969"/><text fill="#000000" font-family="sans-serif" font-size="14" lengthAdjust="spacing" textLength="90.9248" x="1499.5" y="836.292">GPU Memory</text><text fill="#000000" font-family="sans-serif" font-size="14" lengthAdjust="spacing" textLength="55.2412" x="1517.3418" y="852.5889">(server)</text></g><!--entity nvme_data--><g class="entity" data-entity="nvme_data" data-source-line="49" data-uid="ent0020" id="entity_nvme_data"><path d="M1073.5,1121.2969 C1073.5,1111.2969 1146.2002,1111.2969 1146.2002,1111.2969 C1146.2002,1111.2969 1218.9004,1111.2969 1218.9004,1121.2969 L1218.9004,1154.5938 C1218.9004,1164.5938 1146.2002,1164.5938 1146.2002,1164.5938 C1146.2002,1164.5938 1073.5,1164.5938 1073.5,1154.5938 L1073.5,1121.2969" fill="#F1F1F1" style="stroke:#181818;stroke-width:0.5;"/><path d="M1073.5,1121.2969 C1073.5,1131.2969 1146.2002,1131.2969 1146.2002,1131.2969 C1146.2002,1131.2969 1218.9004,1131.2969 1218.9004,1121.2969" fill="none" style="stroke:#181818;stroke-width:0.5;"/><text fill="#000000" font-family="sans-serif" font-size="14" lengthAdjust="spacing" textLength="117.4004" x="1087.5" y="1152.292">NVMe SSD [0..N]</text></g><!--entity shmq--><g class="entity" data-entity="shmq" data-source-line="30" data-uid="ent0007" id="entity_shmq"><rect fill="#F0F0F0" height="76.8906" rx="5" ry="5" style="stroke:#181818;stroke-width:0.5;" width="210.4375" x="861" y="377.2969"/><text fill="#000000" font-family="sans-serif" font-size="14" lengthAdjust="spacing" textLength="98.9092" x="916.7642" y="404.292">Shmq Mailbox</text><text fill="#000000" font-family="sans-serif" font-size="14" lengthAdjust="spacing" textLength="182.4375" x="875" y="420.5889">Populate | Lookup | Check</text><text fill="#000000" font-family="sans-serif" font-size="14" lengthAdjust="spacing" textLength="164.2197" x="884.1089" y="436.8857">Remove | Touch | Flush</text></g><!--entity dispatch_map--><g class="entity" data-entity="dispatch_map" data-source-line="40" data-uid="ent0013" id="entity_dispatch_map"><rect fill="#DBEAFE" height="60.5938" rx="5" ry="5" style="stroke:#181818;stroke-width:0.5;" width="140.2939" x="47" y="809.2969"/><text fill="#000000" font-family="sans-serif" font-size="14" lengthAdjust="spacing" textLength="91.0342" x="71.6299" y="836.292">DispatchMap</text><text fill="#000000" font-family="sans-serif" font-size="14" lengthAdjust="spacing" textLength="112.2939" x="61" y="852.5889">&#171;IDispatchMap&#187;</text></g><!--entity memory_tier--><g class="entity" data-entity="memory_tier" data-source-line="41" data-uid="ent0014" id="entity_memory_tier"><rect fill="#DBEAFE" height="60.5938" rx="5" ry="5" style="stroke:#181818;stroke-width:0.5;" width="133.0068" x="247.5" y="809.2969"/><text fill="#000000" font-family="sans-serif" font-size="14" lengthAdjust="spacing" textLength="83.7471" x="272.1299" y="836.292">MemoryTier</text><text fill="#000000" font-family="sans-serif" font-size="14" lengthAdjust="spacing" textLength="105.0068" x="261.5" y="852.5889">&#171;IMemoryTier&#187;</text></g><!--entity eviction--><g class="entity" data-entity="eviction" data-source-line="42" data-uid="ent0015" id="entity_eviction"><rect fill="#E5E7EB" height="60.5938" rx="5" ry="5" style="stroke:#181818;stroke-width:0.5;" width="145.5645" x="96" y="968.2969"/><text fill="#000000" font-family="sans-serif" font-size="14" lengthAdjust="spacing" textLength="96.3047" x="120.6299" y="995.292">EvictionPolicy</text><text fill="#000000" font-family="sans-serif" font-size="14" lengthAdjust="spacing" textLength="117.5645" x="110" y="1011.5889">&#171;IEvictionPolicy&#187;</text></g><!--entity gpu_svc--><g class="entity" data-entity="gpu_svc" data-source-line="43" data-uid="ent0016" id="entity_gpu_svc"><rect fill="#BBF7D0" height="60.5938" rx="5" ry="5" style="stroke:#181818;stroke-width:0.5;" width="136.9033" x="440.5" y="809.2969"/><text fill="#000000" font-family="sans-serif" font-size="14" lengthAdjust="spacing" textLength="87.6436" x="465.1299" y="836.292">GpuServices</text><text fill="#000000" font-family="sans-serif" font-size="14" lengthAdjust="spacing" textLength="108.9033" x="454.5" y="852.5889">&#171;IGpuServices&#187;</text></g><!--entity spdk_env--><g class="entity" data-entity="spdk_env" data-source-line="44" data-uid="ent0017" id="entity_spdk_env"><rect fill="#E5E7EB" height="60.5938" rx="5" ry="5" style="stroke:#181818;stroke-width:0.5;" width="112.5537" x="957.5" y="968.2969"/><text fill="#000000" font-family="sans-serif" font-size="14" lengthAdjust="spacing" textLength="63.2939" x="982.1299" y="995.292">SPDKEnv</text><text fill="#000000" font-family="sans-serif" font-size="14" lengthAdjust="spacing" textLength="84.5537" x="971.5" y="1011.5889">&#171;ISPDKEnv&#187;</text></g><!--entity remote_lookup--><g class="entity" data-entity="remote_lookup" data-source-line="45" data-uid="ent0018" id="entity_remote_lookup"><rect fill="#E5E7EB" height="60.5938" rx="5" ry="5" style="stroke:#181818;stroke-width:0.5;" width="154.7041" x="1270.5" y="809.2969"/><text fill="#000000" font-family="sans-serif" font-size="14" lengthAdjust="spacing" textLength="105.4443" x="1295.1299" y="836.292">RemoteLookup</text><text fill="#000000" font-family="sans-serif" font-size="14" lengthAdjust="spacing" textLength="126.7041" x="1284.5" y="852.5889">&#171;IRemoteLookup&#187;</text></g><!--entity disp_bg--><g class="entity" data-entity="disp_bg" data-source-line="37" data-uid="ent0012" id="entity_disp_bg"><rect fill="#FEF9C3" height="93.1875" rx="5" ry="5" style="stroke:#181818;stroke-width:0.5;" width="306.25" x="670" y="641.2969"/><text fill="#000000" font-family="sans-serif" font-size="14" lengthAdjust="spacing" textLength="178.8145" x="733.7178" y="668.292">ParallelBackgroundWriter</text><text fill="#000000" font-family="sans-serif" font-size="14" lengthAdjust="spacing" textLength="278.25" x="684" y="684.5889">BackgroundEvictor | MemoryTierEvictor</text><text fill="#000000" font-family="sans-serif" font-size="14" lengthAdjust="spacing" textLength="96.3867" x="774.9316" y="700.8857">ColdReadPool</text><text fill="#000000" font-family="sans-serif" font-size="14" lengthAdjust="spacing" textLength="184.8027" x="730.7236" y="717.1826">PipelineRing (StagingPool)</text></g><!--entity blkdev--><g class="entity" data-entity="blkdev" data-source-line="34" data-uid="ent0010" id="entity_blkdev"><rect fill="#F1F1F1" height="60.5938" rx="5" ry="5" style="stroke:#181818;stroke-width:0.5;" width="189.5195" x="1008" y="809.2969"/><text fill="#000000" font-family="sans-serif" font-size="14" lengthAdjust="spacing" textLength="161.5195" x="1022" y="836.292">BlockDeviceSpdkNvme</text><text fill="#000000" font-family="sans-serif" font-size="14" lengthAdjust="spacing" textLength="107.0029" x="1049.2583" y="852.5889">&#171;IBlockDevice&#187;</text></g><!--entity extmgr--><g class="entity" data-entity="extmgr" data-source-line="35" data-uid="ent0011" id="entity_extmgr"><rect fill="#F1F1F1" height="60.5938" rx="5" ry="5" style="stroke:#181818;stroke-width:0.5;" width="156.2217" x="1036" y="657.2969"/><text fill="#000000" font-family="sans-serif" font-size="14" lengthAdjust="spacing" textLength="106.9619" x="1060.6299" y="684.292">ExtentManager</text><text fill="#000000" font-family="sans-serif" font-size="14" lengthAdjust="spacing" textLength="128.2217" x="1050" y="700.5889">&#171;IExtentManager&#187;</text></g><!--link pyclient to shmq--><g class="link" data-entity-1="pyclient" data-entity-2="shmq" data-source-line="56" data-uid="lnk21" id="link_pyclient_shmq"><path d="M1174.81,183.4569 C1141.98,199.4369 1103.97,221.4169 1075,248.2969 C1034.73,285.6569 1005.1782,335.4981 986.4782,371.9581" fill="none" id="pyclient-to-shmq" style="stroke:#181818;stroke-width:1;"/><polygon fill="#181818" points="983.74,377.2969,991.4065,371.1142,986.0218,372.8479,984.2881,367.4633,983.74,377.2969" style="stroke:#181818;stroke-width:1;"/><text fill="#000000" font-family="sans-serif" font-size="13" lengthAdjust="spacing" textLength="35.9277" x="1123" y="232.3638">shmq</text></g><!--link client_gpu to server_gpu--><g class="link" data-entity-1="client_gpu" data-entity-2="server_gpu" data-source-line="57" data-uid="lnk22" id="link_client_gpu_server_gpu"><path d="M1441.32,175.0469 C1456.84,274.4069 1521.3341,687.2587 1539.4241,803.0787" fill="none" id="client_gpu-to-server_gpu" style="stroke:#181818;stroke-width:1;stroke-dasharray:7,7;"/><polygon fill="#181818" points="1540.35,809.0069,1542.9132,799.4974,1539.5784,804.0668,1535.009,800.732,1540.35,809.0069" style="stroke:#181818;stroke-width:1;"/><text fill="#000000" font-family="sans-serif" font-size="13" lengthAdjust="spacing" textLength="62.3784" x="1497" y="496.3638">CUDA IPC</text></g><!--link shmq to dispatcher--><g class="link" data-entity-1="shmq" data-entity-2="dispatcher" data-source-line="59" data-uid="lnk23" id="link_shmq_dispatcher"><path d="M860.75,421.4169 C790.49,430.2069 701.35,453.3069 647,512.2969 C643.695,515.8844 640.6566,519.6909 637.8645,523.676 C637.1665,524.6723 636.4839,525.6797 635.8163,526.6977 C635.4825,527.2067 638.3673,522.6522 638.0411,523.1664" fill="none" id="shmq-to-dispatcher" style="stroke:#181818;stroke-width:1;"/><polygon fill="#181818" points="634.8263,528.2324,643.0259,522.7766,637.5053,524.0107,636.2711,518.4901,634.8263,528.2324" style="stroke:#181818;stroke-width:1;"/></g><!--link dispatcher to dispatch_map--><g class="link" data-entity-1="dispatcher" data-entity-2="dispatch_map" data-source-line="61" data-uid="lnk24" id="link_dispatcher_dispatch_map"><path d="M601.9671,691.2423 C601.7639,691.3041 601.557,691.367 601.3466,691.431 C599.6627,691.9432 597.7477,692.5258 595.6144,693.1747 C587.0813,695.7705 575.0563,699.4289 560.3675,703.8978 C530.99,712.8356 490.9575,725.0156 446.895,738.4219 C358.77,765.2344 260.2652,795.2055 192.9002,815.7005" fill="none" id="dispatcher-to-dispatch_map" style="stroke:#181818;stroke-width:1;"/><polygon fill="#181818" points="187.16,817.4469,196.9346,818.6541,191.9435,815.9915,194.6061,811.0005,187.16,817.4469" style="stroke:#181818;stroke-width:1;"/></g><!--link dispatcher to memory_tier--><g class="link" data-entity-1="dispatcher" data-entity-2="memory_tier" data-source-line="62" data-uid="lnk25" id="link_dispatcher_memory_tier"><path d="M601.8752,692.9166 C601.7293,692.9905 601.5816,693.0654 601.4321,693.1411 C601.133,693.2926 600.8268,693.4478 600.5135,693.6065 C599.8869,693.924 599.2318,694.2559 598.5492,694.6018 C597.1839,695.2935 595.7083,696.0412 594.1286,696.8416 C590.9693,698.4423 587.394,700.2539 583.4539,702.2505 C567.6934,710.2366 546.0956,721.1813 521.9338,733.4256 C473.61,757.9144 420.3819,784.8895 377.7319,806.5045" fill="none" id="dispatcher-to-memory_tier" style="stroke:#181818;stroke-width:1;"/><polygon fill="#181818" points="372.38,809.2169,382.2161,808.7163,376.8399,806.9566,378.5997,801.5804,372.38,809.2169" style="stroke:#181818;stroke-width:1;"/></g><!--link dispatcher to gpu_svc--><g class="link" data-entity-1="dispatcher" data-entity-2="gpu_svc" data-source-line="63" data-uid="lnk26" id="link_dispatcher_gpu_svc"><path d="M601.8755,700.866 C601.7167,701.1019 601.5558,701.3408 601.393,701.5825 C601.0675,702.066 600.7342,702.561 600.3934,703.067 C594.9412,711.1641 587.5762,722.1025 579.38,734.2756 C562.9875,758.6219 546.6213,782.93 532.2313,804.3" fill="none" id="dispatcher-to-gpu_svc" style="stroke:#181818;stroke-width:1;"/><polygon fill="#181818" points="528.88,809.2769,537.2248,804.0458,531.6727,805.1295,530.589,799.5774,528.88,809.2769" style="stroke:#181818;stroke-width:1;"/></g><!--link dispatcher to remote_lookup--><g class="link" data-entity-1="dispatcher" data-entity-2="remote_lookup" data-source-line="64" data-uid="lnk27" id="link_dispatcher_remote_lookup"><path d="M1246.3806,769.1494 C1246.5092,769.2085 1246.6377,769.2677 1246.7662,769.327 C1247.0232,769.4456 1247.28,769.5647 1247.5366,769.6842 C1248.05,769.9232 1248.5627,770.164 1249.0748,770.4065 C1250.0989,770.8914 1251.1205,771.3832 1252.1391,771.8814 C1254.1765,772.8778 1256.2024,773.8996 1258.2145,774.9435 C1262.2387,777.0313 1266.2078,779.2069 1270.1038,781.4419 C1285.6875,790.3819 1295.2914,796.6833 1307.3714,805.6983" fill="none" id="dispatcher-to-remote_lookup" style="stroke:#181818;stroke-width:1;"/><polygon fill="#181818" points="1312.18,809.2869,1307.3595,800.6984,1308.1728,806.2964,1302.5748,807.1098,1312.18,809.2869" style="stroke:#181818;stroke-width:1;"/></g><!--link dispatch_map to eviction--><g class="link" data-entity-1="dispatch_map" data-entity-2="eviction" data-source-line="66" data-uid="lnk28" id="link_dispatch_map_eviction"><path d="M126.78,870.3269 C136.05,898.3069 148.0042,934.4109 157.2842,962.4409" fill="none" id="dispatch_map-to-eviction" style="stroke:#181818;stroke-width:1;"/><polygon fill="#181818" points="159.17,968.1369,160.1386,958.3358,157.5985,963.3903,152.544,960.8501,159.17,968.1369" style="stroke:#181818;stroke-width:1;"/></g><!--link memory_tier to eviction--><g class="link" data-entity-1="memory_tier" data-entity-2="eviction" data-source-line="67" data-uid="lnk29" id="link_memory_tier_eviction"><path d="M286.73,870.3269 C260.88,898.3069 226.3502,935.6985 200.4702,963.7285" fill="none" id="memory_tier-to-eviction" style="stroke:#181818;stroke-width:1;"/><polygon fill="#181818" points="196.4,968.1369,205.4442,964.2378,199.7918,964.4633,199.5664,958.8109,196.4,968.1369" style="stroke:#181818;stroke-width:1;"/></g><!--link disp_bg to blkdev--><g class="link" data-entity-1="disp_bg" data-entity-2="blkdev" data-source-line="69" data-uid="lnk30" id="link_disp_bg_blkdev"><path d="M837.14,734.3569 C844.68,758.0469 852.85,782.4569 855,784.2969 C906.06,827.9069 938.59,794.1269 1004,809.2969 C1005.31,809.5969 1000.7889,808.5451 1002.1089,808.8551" fill="none" id="disp_bg-to-blkdev" style="stroke:#181818;stroke-width:1;"/><polygon fill="#181818" points="1007.95,810.2269,1000.1029,804.2752,1003.0824,809.0837,998.2739,812.0633,1007.95,810.2269" style="stroke:#181818;stroke-width:1;"/></g><!--link blkdev to spdk_env--><g class="link" data-entity-1="blkdev" data-entity-2="spdk_env" data-source-line="70" data-uid="lnk31" id="link_blkdev_spdk_env"><path d="M1086.26,870.3269 C1070.4,898.3069 1049.6576,934.8864 1033.7776,962.9164" fill="none" id="blkdev-to-spdk_env" style="stroke:#181818;stroke-width:1;"/><polygon fill="#181818" points="1030.82,968.1369,1038.7366,962.2779,1033.2846,963.7865,1031.7761,958.3345,1030.82,968.1369" style="stroke:#181818;stroke-width:1;"/></g><!--link extmgr to blkdev--><g class="link" data-entity-1="extmgr" data-entity-2="blkdev" data-source-line="71" data-uid="lnk32" id="link_extmgr_blkdev"><path d="M1074.84,718.4569 C1062.94,729.7869 1051.34,743.7569 1045,759.2969 C1043.95,761.8669 1043.9,781.7469 1045,784.2969 C1049,793.5569 1051.2357,797.6862 1058.3957,804.9762" fill="none" id="extmgr-to-blkdev" style="stroke:#181818;stroke-width:1;"/><polygon fill="#181818" points="1062.6,809.2569,1059.1473,800.0331,1059.0964,805.6897,1053.4398,805.6388,1062.6,809.2569" style="stroke:#181818;stroke-width:1;"/><text fill="#000000" font-family="sans-serif" font-size="13" lengthAdjust="spacing" textLength="63.0068" x="1050" y="776.3638">metadata</text></g><!--link gpu_svc to server_gpu--><g class="link" data-entity-1="gpu_svc" data-entity-2="server_gpu" data-source-line="73" data-uid="lnk33" id="link_gpu_svc_server_gpu"><path d="M577.81,822.7469 C657.08,804.0669 791.49,775.2869 909,764.2969 C1028.89,753.0769 1330.95,785.5269 1449,809.2969 C1460.91,811.6969 1467.6962,813.3022 1479.6162,816.9022" fill="none" id="gpu_svc-to-server_gpu" style="stroke:#181818;stroke-width:1;"/><polygon fill="#181818" points="1485.36,818.6369,1477.9008,812.2057,1480.5735,817.1913,1475.5879,819.864,1485.36,818.6369" style="stroke:#181818;stroke-width:1;"/><text fill="#000000" font-family="sans-serif" font-size="13" lengthAdjust="spacing" textLength="30.1196" x="914" y="776.3638">DMA</text></g><!--link spdk_env to nvme_data--><g class="link" data-entity-1="spdk_env" data-entity-2="nvme_data" data-source-line="75" data-uid="lnk34" id="link_spdk_env_nvme_data"><path d="M1042.64,1029.5269 C1066.15,1053.9169 1094.9164,1083.7766 1117.2464,1106.9466" fill="none" id="spdk_env-to-nvme_data" style="stroke:#181818;stroke-width:1;"/><polygon fill="#181818" points="1121.41,1111.2669,1118.0447,1102.0108,1117.9403,1107.6667,1112.2844,1107.5623,1121.41,1111.2669" style="stroke:#181818;stroke-width:1;"/><text fill="#000000" font-family="sans-serif" font-size="13" lengthAdjust="spacing" textLength="30.437" x="1101" y="1078.3638">VFIO</text></g><!--link blkdev to nvme_data--><g class="link" data-entity-1="blkdev" data-entity-2="nvme_data" data-source-line="76" data-uid="lnk35" id="link_blkdev_nvme_data"><path d="M1136.73,870.5369 C1155.13,889.0869 1176.13,914.6369 1186,942.2969 C1206.85,1000.7369 1181.2579,1067.7728 1162.6479,1105.6128" fill="none" id="blkdev-to-nvme_data" style="stroke:#181818;stroke-width:1;stroke-dasharray:7,7;"/><polygon fill="#181818" points="1160,1110.9969,1167.5613,1104.686,1162.2066,1106.5101,1160.3825,1101.1554,1160,1110.9969" style="stroke:#181818;stroke-width:1;"/><text fill="#000000" font-family="sans-serif" font-size="13" lengthAdjust="spacing" textLength="60.4106" x="1199" y="1003.3638">NVMe I/O</text></g><!--SRC=[hLJTRjis5BxdKn3nnHe3JZrqMT2Y3M1BScRCTWpRJI_gGc0aHY9Canf5QJ7Q0dk8FU6UP8UK5D6AUvLQW2L-vvoFv7T-yXqJ6L5aZsFwG0gkD_HHZpXBn9uAZIFuemhbJruPYMCc4loRWmaPqvnc-FUX0oeYTWQyF09ff8b8ECLV4ORVIXOYzgGILE5VBz5tnvKaPlyJRaDmIrbCSGuder8VCegGPXf8FQfqaUCrLILu_lVFl_YXu1mlbNnW7Bn-mHzUy8DmRpOD5fkNyhGgdFNx7cVced_8NFVxPvZaEB98U2yVSMzoQPvQXagIivlbHrn5RSMhSZQRuzTuUTX85QNdbY0xL1JTe3dTItLmzqYo0lTcB4drZQ9KWB8lrsWThEw2rK_Lg4weer5kaLgZaNb08tjV9p2ovJ2eVDsmJCa8zpwbJDCcp95gdUx_mdF2EB1lnL9c1IVW-0tFfDmL6NnuAOrsMx42FKjZsCWYIk4zuKMULXiPZjvaQ9vsWwDB-IpFY8vIglfz_Fxzj5rVNrkE-0d0FNySZ2P1NGSdw7oYYQyOdERpyE9YyQKY032CBTgR19CttbM7mBdqcCjevzEIHNITnRj5kQTR0QToyFfOztmNq_97FC6ZXlUS25Whot24r1mmO_Q9EkBuZawmBM4KS4xvc4IxH9afy4b1qe2uHG8ucvOAvA_gUyEegh6jy2IFLvJ4Ioavv99bb3D1LsQ2lLfhai27CPq_2HxU9rQijzuRr1wjMo9DhkOaitTqrftaXNkIDUdhihJdjIJjikROMo3KhAs0BeMzA9DGfPn5Xqhl8wWHl0PnBxWChe9nb-ScAqoJGPPpI-AiQmOO5M5UGjkCnvChV_YiQPR-du4eRN3zNGVcK4uX5UMFjZPTf6dLMpRS1MeEPQ6GLmte4jMvUJRbO3HMpNxkDdvttfbGqoNt98ScMjpDALwlVRU713H2Q5n-ocpqRXUBmDjCRnVhbvAXPihZGIp_5eFhQkQyio_apFSBOxwuTYLuXxsF_WXFbnv2DggXQ4SEGixuwPfDKP-oEmLxoboNq949uAFajllQpcb2c_f5RayyCwAcWmrjFQUgLojINOse6a6E9wYofvhONAEcsWVA5CkWevu_7u5mJLqtr4-b0Xvta-bjitMJ0DTkIstw-XRz3m00]--></g></svg>